<svg width="960" height="760" viewBox="0 0 960 760" fill="none" xmlns="http://www.w3.org/2000/svg">
  <rect width="960" height="760" rx="52" fill="url(#bg)"/>
  <circle cx="144" cy="118" r="90" fill="#FFFFFF" fill-opacity="0.12"/>
  <circle cx="790" cy="122" r="110" fill="#F6B53E" fill-opacity="0.18"/>
  <circle cx="816" cy="586" r="132" fill="#35C5A1" fill-opacity="0.14"/>
  <rect x="72" y="92" width="816" height="576" rx="34" fill="#FFFFFF" fill-opacity="0.86"/>
  <rect x="108" y="132" width="304" height="166" rx="26" fill="#EEF2FF"/>
  <rect x="142" y="166" width="130" height="14" rx="7" fill="#324A9F"/>
  <rect x="142" y="196" width="210" height="10" rx="5" fill="#8094E6"/>
  <rect x="142" y="224" width="170" height="10" rx="5" fill="#B9C6FF"/>
  <rect x="142" y="250" width="106" height="10" rx="5" fill="#C9D5FF"/>
  <path d="M150 282L204 228L258 252L316 188L370 200" stroke="#FF7A59" stroke-width="12" stroke-linecap="round" stroke-linejoin="round"/>
  <circle cx="370" cy="200" r="18" fill="#FF7A59"/>
  <rect x="440" y="132" width="412" height="252" rx="28" fill="#091224"/>
  <rect x="480" y="172" width="126" height="16" rx="8" fill="#FFFFFF"/>
  <rect x="480" y="204" width="182" height="10" rx="5" fill="#94A8FF"/>
  <path d="M490 322C534 276 606 248 666 256C726 264 792 310 818 356" stroke="#35C5A1" stroke-width="16" stroke-linecap="round"/>
  <path d="M490 342C544 300 626 284 692 298C742 309 786 340 818 382" stroke="#4964D7" stroke-width="16" stroke-linecap="round"/>
  <circle cx="818" cy="382" r="18" fill="#F6B53E"/>
  <rect x="108" y="330" width="344" height="298" rx="28" fill="#091224"/>
  <rect x="144" y="366" width="128" height="14" rx="7" fill="#FFFFFF"/>
  <rect x="144" y="398" width="178" height="10" rx="5" fill="#94A8FF"/>
  <rect x="144" y="446" width="46" height="118" rx="18" fill="#324A9F"/>
  <rect x="208" y="416" width="46" height="148" rx="18" fill="#4964D7"/>
  <rect x="272" y="472" width="46" height="92" rx="18" fill="#35C5A1"/>
  <rect x="336" y="386" width="46" height="178" rx="18" fill="#FF7A59"/>
  <path d="M514 476H846" stroke="#D7DEF8" stroke-width="10" stroke-linecap="round"/>
  <rect x="514" y="520" width="332" height="16" rx="8" fill="#324A9F"/>
  <rect x="514" y="554" width="246" height="12" rx="6" fill="#8094E6"/>
  <rect x="514" y="586" width="194" height="12" rx="6" fill="#C4D0FF"/>
  <rect x="746" y="576" width="100" height="40" rx="20" fill="#FF7A59"/>
  <path d="M770 596L786 580L806 602L830 572" stroke="white" stroke-width="8" stroke-linecap="round" stroke-linejoin="round"/>
  <defs>
    <linearGradient id="bg" x1="66" y1="44" x2="936" y2="728" gradientUnits="userSpaceOnUse">
      <stop stop-color="#20357E"/>
      <stop offset="0.55" stop-color="#324A9F"/>
      <stop offset="1" stop-color="#4964D7"/>
    </linearGradient>
  </defs>
</svg>
